<?xml version="1.0" encoding="utf-8"?>
<!-- Generator: Adobe Illustrator 16.0.0, SVG Export Plug-In . SVG Version: 6.00 Build 0)  -->
<!DOCTYPE svg PUBLIC "-//W3C//DTD SVG 1.1//EN" "http://www.w3.org/Graphics/SVG/1.1/DTD/svg11.dtd">
<svg version="1.1" id="Layer_1" xmlns="http://www.w3.org/2000/svg" xmlns:xlink="http://www.w3.org/1999/xlink" x="0px" y="0px"
	 width="640px" height="480px" viewBox="0 0 640 480" enable-background="new 0 0 640 480" xml:space="preserve">
<g>
	<defs>
		<rect id="SVGID_1_" x="152" y="54" width="480" height="480"/>
	</defs>
	<clipPath id="SVGID_2_">
		<use xlink:href="#SVGID_1_"  overflow="visible"/>
	</clipPath>
</g>
<linearGradient id="SVGID_3_" gradientUnits="userSpaceOnUse" x1="167.021" y1="359.9531" x2="466.9785" y2="359.9531">
	<stop  offset="0" style="stop-color:#000000"/>
	<stop  offset="0.3333" style="stop-color:#ED2224"/>
	<stop  offset="0.6666" style="stop-color:#3A53A4"/>
	<stop  offset="0.8298" style="stop-color:#969585"/>
	<stop  offset="0.947" style="stop-color:#D9CF50"/>
	<stop  offset="1" style="stop-color:#F6EB16"/>
</linearGradient>
<path fill-rule="evenodd" clip-rule="evenodd" fill="url(#SVGID_3_)" d="M410.214,471.648c-13.295-0.04-26.047-2.679-38.387-7.544
	c-6.064-2.392-12.15-4.746-18.316-6.861c-5.898-2.024-12.02-3.296-18.283-2.808c-4.576,0.356-9.178,0.986-13.642,2.027
	c-11.827,2.758-23.589,5.79-35.37,8.742c-9.25,2.318-18.542,4.519-28.052,5.315c-10.524,0.883-21.098,0.975-31.651,0.556
	c-6.134-0.243-12.212-1.228-18.2-2.665c-9.297-2.231-17.736-6.392-25.202-12.224c-11.418-8.92-16.85-20.847-16.005-35.375
	c0.319-5.494,1.754-10.85,3.162-16.169c4.2-15.875,10.82-30.733,18.996-44.928c15.69-27.239,34.79-51.816,57.657-73.41
	c12.021-11.353,25.218-21.119,40.158-28.325c5.114-2.467,10.422-4.577,15.759-6.53c10.715-3.921,21.618-4.101,32.648-1.247
	c8.941,2.313,17.197,6.162,25.125,10.787c11.006,6.422,20.807,14.426,30.076,23.108c16.781,15.718,30.814,33.676,43.156,53.009
	c9.594,15.028,17.848,30.751,24.416,47.335c3.947,9.966,6.777,20.237,8.135,30.896c1.125,8.836,0.875,17.492-2.975,25.75
	c-4.686,10.054-11.832,17.868-21.404,23.434c-6.275,3.648-13.004,5.948-20.313,6.368
	C417.87,471.109,414.044,471.394,410.214,471.648z"/>
<g id="XMLID_2_">
	<g>
		<path fill="#010101" d="M215.986,246.211c1.19,10.6-0.37,20.77-5.22,30.369c-4.06,8.061-10.52,13.44-18.8,16.66
			c-11.2,4.36-22.74,4.65-34.34,1.99c-17.32-3.97-32.24-12.49-45.14-24.59c-13.54-12.69-23.45-27.79-29.76-45.25
			c-3.1-8.58-5.32-17.4-5.93-26.51c-0.97-14.58,2.11-28.14,11.12-39.94c4.58-6,10.38-10.59,17.42-13.44
			c6.36-2.57,13.01-3.19,19.79-2.62c14.31,1.22,27.2,6.3,39.02,14.31c17.85,12.12,31.1,28.14,40.27,47.61
			c4.27,9.06,7.5,18.48,9.33,28.37C214.506,237.51,215.496,241.83,215.986,246.211z"/>
	</g>
	<g>
	</g>
</g>
<g id="XMLID_3_">
	<g>
		<path fill="#010101" d="M458.206,128.32c-0.03,0-0.06,0-0.09,0c0,2.63,0.02,5.25,0,7.88c-0.23,27.58-8.66,52.39-25.22,74.44
			c-4.511,6-9.49,11.58-15.45,16.21c-6.12,4.77-12.72,8.65-20.44,10.12c-11.3,2.14-22.18,0.84-32.37-4.71
			c-12.27-6.68-20.979-16.61-26.29-29.48c-4.489-10.88-6.569-22.28-6.92-34.02c-0.66-21.69,4.471-42.1,13.63-61.6
			c5.761-12.26,13.08-23.46,22.75-33.02c7.801-7.7,16.721-13.68,27.171-17.19c14.789-4.97,28.199-2.15,39.979,7.85
			c8.11,6.88,13.55,15.76,17.34,25.65c3.141,8.18,4.931,16.67,5.46,25.41C458.016,120.01,458.056,124.17,458.206,128.32z"/>
	</g>
	<g>
	</g>
</g>
<g id="XMLID_1_">
	<g>
		<path fill="#010101" d="M326.276,146.15c0.33,4.14,0.52,8.29,0.77,12.44c-0.08,14.37-2.399,28.27-8.13,41.52
			c-3.81,8.79-8.97,16.65-16.06,23.16c-6.66,6.1-8.33,6.97-17.25,8.14c-7.75,1.02-15.44,0.58-22.98-1.66
			c-3.58-1.06-6.95-2.57-10.14-4.51c-10.79-6.55-19.48-15.28-26.64-25.61c-7.39-10.65-12.56-22.35-16.37-34.72
			c-3.94-12.81-6.17-25.9-6.31-39.26c-0.18-18.25,3.24-35.75,12.35-51.82c3.95-6.96,8.91-13.12,15.27-18.05
			c4.97-3.86,10.48-6.65,16.73-7.72c9.32-1.59,18.2-0.09,26.65,4.09c10.36,5.13,18.72,12.64,25.65,21.79
			c7.54,9.97,13.14,21.02,17.54,32.68C322.166,119.38,325.176,132.55,326.276,146.15z"/>
	</g>
	<g>
	</g>
</g>
<g id="XMLID_4_">
	<g>
		<path fill="#010101" d="M562.856,218.85c0.859,7.29,0.52,14.56-0.07,21.85c-0.6,4.439-1.021,8.899-1.82,13.3
			c-2.779,15.45-8.97,29.43-18.51,41.88c-7.91,10.32-17.53,18.78-28.55,25.65c-6.13,3.83-12.73,6.55-19.851,7.899
			c-5.359,1.021-10.689,0.49-16.029-0.31c-22.16-3.311-39.391-21.99-44.45-42.24c-1.54-6.149-2.04-12.37-1.74-18.649
			c1.28-27.061,10.75-50.851,28.83-71.07c10.7-11.97,23.64-20.67,38.95-25.73c6.71-2.21,13.57-3.16,20.61-2.28
			c14.17,1.76,25.319,8.36,32.899,20.65C558.646,198.73,561.626,208.49,562.856,218.85z"/>
	</g>
	<g>
	</g>
</g>
</svg>
